<svg width="30" height="30" viewBox="0 0 30 30" fill="none" xmlns="http://www.w3.org/2000/svg">
<path d="M27.8105 0.600098H2.18965C1.76806 0.600098 1.36374 0.767573 1.06563 1.06568C0.767527 1.36379 0.600052 1.76811 0.600052 2.1897V27.8109C0.600158 28.2324 0.76768 28.6366 1.06578 28.9347C1.36387 29.2327 1.76813 29.4001 2.18965 29.4001H15.9829V18.2473H12.2297V13.9009H15.9829V10.6953C15.9829 6.9753 18.2549 4.9501 21.5732 4.9501C23.1628 4.9501 24.5289 5.0681 24.9272 5.1213V9.0089L22.6257 9.0101C20.8209 9.0101 20.4717 9.8677 20.4717 11.1261V13.9013H24.7757L24.2153 18.2477H20.4717V29.4001H27.8109C28.2324 29.4 28.6366 29.2325 28.9346 28.9344C29.2326 28.6363 29.4001 28.232 29.4001 27.8105V2.1897C29.4001 1.76811 29.2326 1.36379 28.9345 1.06568C28.6364 0.767573 28.232 0.600098 27.8105 0.600098Z" fill="black"/>
</svg>
