<svg width="32" height="32" viewBox="0 0 32 32" fill="none" xmlns="http://www.w3.org/2000/svg">
<path d="M32 3.78829C30.8018 4.44146 29.5309 4.86998 28.2295 5.05958C29.6003 4.05032 30.6261 2.46219 31.1157 0.591158C29.8272 1.53237 28.4173 2.19515 26.9471 2.55076C26.3328 1.74453 25.5906 1.10213 24.7663 0.663362C23.942 0.224595 23.0533 -0.0011885 22.1552 4.70474e-06C18.5298 4.70474e-06 15.59 3.61647 15.59 8.07875C15.59 8.71133 15.6482 9.32856 15.7604 9.92022C10.304 9.58323 5.4668 6.36666 2.22869 1.4784C1.64485 2.71136 1.33806 4.11326 1.33979 5.54027C1.33893 6.87037 1.60508 8.18014 2.1146 9.35319C2.62411 10.5262 3.36121 11.5263 4.26041 12.2644C3.21804 12.2236 2.19864 11.8772 1.28701 11.2539C1.28618 11.2876 1.28618 11.3209 1.28618 11.3557C1.28618 15.2687 3.54895 18.5339 6.55185 19.2769C5.58493 19.599 4.57113 19.6462 3.58718 19.415C4.42248 22.6239 6.8469 24.9604 9.71973 25.0258C7.39417 27.2716 4.52243 28.4897 1.56628 28.4843C1.03643 28.4843 0.514058 28.4464 0 28.3713C3.00179 30.7446 6.49539 32.0044 10.0634 32C22.139 32 28.7424 19.6906 28.7424 9.01611C28.7424 8.66632 28.7357 8.31705 28.7232 7.96983C30.0092 6.82736 31.1189 5.41125 32 3.78829Z" fill="black"/>
</svg>
