<svg width="30" height="30" viewBox="0 0 30 30" fill="none" xmlns="http://www.w3.org/2000/svg">
<path d="M26.6192 0.600098H3.38085C1.85125 0.600098 0.600052 1.8513 0.600052 3.3809V26.6193C0.600052 28.1489 1.85125 29.4001 3.38085 29.4001H26.6192C28.1488 29.4001 29.4001 28.1489 29.4001 26.6193V3.3809C29.4001 1.8513 28.1488 0.600098 26.6192 0.600098ZM24.7641 9.7409C24.5381 10.9161 23.0385 15.0285 20.3213 18.6597C19.1333 20.1941 17.7444 21.7013 15.9625 22.7421C15.3053 23.1261 14.0053 23.6109 13.1417 23.2485C12.5369 22.9969 12.0729 22.4665 11.7013 21.8017C11.0325 20.6025 10.6705 18.9629 10.3565 17.7193C10.0665 16.5789 9.79445 15.4961 9.44005 14.5049C9.23365 13.9229 9.10805 13.3341 8.86805 12.7749L8.86445 12.7693L8.86725 12.7749L8.84005 12.7333C8.84805 12.7453 8.85645 12.7569 8.86445 12.7697C8.79791 12.6116 8.7208 12.4582 8.63365 12.3105C7.95365 11.1793 6.98045 12.2665 5.95925 12.1181C5.68365 12.0781 5.47485 11.8801 5.33965 11.6697C5.26205 11.5493 5.40005 11.4249 5.00005 11.3241V11.2141C6.60005 10.0477 7.86805 8.6321 9.58405 7.6385C10.1221 7.3257 11.0785 6.9713 11.8205 7.1869C12.4045 7.3557 12.9369 7.8985 13.2236 8.6877H13.2245C13.2769 8.6877 13.3233 8.9481 13.3605 9.0645C13.6465 9.9501 13.8001 11.0817 13.9457 11.9421C14.1765 13.2969 14.1381 15.3945 14.9117 16.5781H14.9125C15.0145 16.5781 15.1301 16.8525 15.2625 16.9933C16.5301 18.3313 17.4973 16.4493 18.0137 15.5037C18.4601 14.6829 18.8596 13.8161 18.9289 13.0349C18.9685 12.5921 18.9469 12.2333 18.8689 11.9553C18.6477 11.1661 17.9669 10.9769 16.9004 11.0133C16.7645 11.0181 16.6229 11.0241 16.4749 11.0357C17.4445 8.0649 20.2961 6.8237 21.1381 6.6965C22.1753 6.5405 23.6869 6.5717 24.3977 7.4593C24.5351 7.63123 24.642 7.82553 24.7136 8.0337C24.896 8.5589 24.8701 9.1557 24.7641 9.7409Z" fill="black"/>
</svg>
